<svg xmlns="http://www.w3.org/2000/svg" viewBox="0 0 1536 1024" version="1.1" width="1536" height="1024">
	<path d="M 772 417.01408075203324 C 742.8085221125131 421.71067067779114, 726 443.2604687354289, 726 475.9895637847368 C 726 506.0640205892753, 738.7644984435473 526.0876366738642, 762.7034119789355 533.5660548400693 C 775.9758511382684 537.7123102652489, 797.2385531095514 536.0903755450796, 809.6716954952444 529.983279241524 C 820.064373532618 524.8784486478422, 829.9788156926678 512.0676730174347, 831.6879823555796 501.5353134730671 L 832.2616847539507 498 819.23925040685 498 L 806.2168160597492 498 805.5305498970208 500.75 C 802.7824263379673 511.76225763099137, 786.2344531264083 518.118873621562, 771.6160195593893 513.7776767493372 C 765.8280901272803 512.0588509235648, 758.8576174202635 504.80883954379124, 755.9091289261507 497.44088861196917 C 752.4349321780859 488.7592501323384, 752.3970375383891 463.34475045753493, 755.845959384421 455.07546937077325 C 761.1710899244403 442.307710858129, 768.2863378027009 437.5293300281579, 782 437.5112230589053 C 789.5237412578255 437.50128901286706, 791.0481281125607 437.8221971021569, 795.2723915346336 440.3052761527476 C 800.2080515121537 443.2065236997117, 804.3834063357662 448.466673109493, 805.5475398137779 453.25 L 806.2168160597492 456 819.1084080298747 456 C 833.8012158771274 456, 833.0581135408879 456.6364433398297, 829.9844353633134 446.68503108844675 C 825.572744658224 432.4016382296062, 813.1874604054875 421.53911612834503, 797.5 418.1945346347203 C 789.8876056415523 416.571564910154, 778.1326668247183 416.0274016486999, 772 417.01408075203324 M 373 428.5 L 373 439 389 439 L 405 439 405 486.5 L 405 534 418.5 534 L 432 534 432 486.5 L 432 439 448 439 L 464 439 464 428.5 L 464 418 418.5 418 L 373 418 373 428.5 M 1004.2205394234552 419.062449237518 C 992.9325544500449 421.2868790798204, 986 431.47593669032426, 986 445.84191807801733 L 986 450.585393950234 980.75 450.542696975117 L 975.5 450.5 975.5 459 L 975.5 467.5 980.75 467.80225958082656 L 986 468.1045191616532 986 501.05225958082656 L 986 534 998 534 L 1010 534 1010 501 L 1010 468 1018 468 L 1026 468 1026 458.93470484681507 L 1026 449.8694096936301 1018.25 450.08144476601956 L 1010.5 450.29347983840904 1010.5651846617072 445.6093330352751 C 1010.6597499101485 438.81390763039394, 1013.3145312859607 436.43853836112123, 1020.5310805213844 436.69233407576303 L 1026 436.88466815152606 1026 427.44233407576303 L 1026 418 1017.25 418.1095656673232 C 1012.4375 418.16982678435096, 1006.5742427405548 418.59862439093865, 1004.2205394234552 419.062449237518 M 1041 438.9452088091083 L 1041 449.8904176182166 1036.25 450.1952088091083 L 1031.5 450.5 1031.2110671165622 459.25 L 1030.9221342331243 468 1035.9610671165622 468 L 1041 468 1041.0438928240578 493.75 C 1041.0983173007683 525.678459956224, 1041.9042290282316 528.7128737150688, 1051.5 533.1192688633541 C 1055.6128232042265 535.007884615666, 1071.5906902682493 535.6006080489162, 1078.5 534.1208751875045 L 1081.5 533.478379951861 1081.6586164789392 524.741194714881 L 1081.8172329578786 516.0040094779009 1076.6586164789392 516.5924545182027 C 1065.0110698566118 517.9210939062193, 1064.013454401187 515.6470412330673, 1064.0055769344026 487.75 L 1064 468 1072.5 468 L 1081 468 1081 459 L 1081 450 1072.5 450 L 1064 450 1064 439 L 1064 428 1052.5 428 L 1041 428 1041 438.9452088091083 M 582.4069034768372 449.34547675251645 C 576.2918872451779 450.90327063518976, 570.8156415617192 454.134890346617, 568.0722451878034 457.80458669043264 L 566.0572045940132 460.5 566.4595273768396 455.25 L 566.8618501596659 450 555.430925079833 450 L 544 450 544 506 L 544 562 556 562 L 568 562 568 543.9220767619914 L 568 525.8441535239829 572.0418609158462 529.3038360382294 C 577.5150053906777 533.9886440095486, 582.9361502828082 535.3345021844372, 594.2170029869826 534.8090562139671 C 607.7543025147547 534.1785081805476, 615.950732704642 529.1982092630471, 621.9377377177359 517.9654374709896 C 626.5539531940773 509.30453024353557, 627.9762622492269 503.07088307241276, 627.9762622492269 491.5 C 627.9762622492269 465.0583125841076, 616.2284438686213 450.1012932346028, 594.224917718422 448.5286586952644 C 590.328087779877 448.25014472830065, 585.3581560932064 448.5936482866816, 582.4069034768372 449.34547675251645 M 668.5 448.6414795484579 C 644.7183898363131 452.25568493413164, 631.0985023551361 472.6860812855947, 634.8388179360893 499.13464934702586 C 637.5079315709528 518.008520309912, 648.1569479392631 530.4687853118306, 665.0135342506737 534.4416625615336 C 681.4807456730118 538.3227692350462, 698.5244812654289 534.531198111448, 708.2203571405914 524.8298177213262 C 712.0951462815264 520.952828796167, 717 512.6740602147427, 717 510.0108984155702 C 717 509.3901484089616, 712.6971371735997 509, 705.85101896173 509 L 694.7020379234599 509 691.3476192361552 512.4539347521744 C 684.272493756313 519.7389590883752, 670.2407498793349 519.6140548983734, 663.6549190764775 512.2074269543745 C 661.5218002218887 509.8084558618566, 659.1076957499525 503.5333933632458, 659.0438928240578 500.2218321911691 L 659 497.94366438233817 687.75 498.0348919086884 L 716.5 498.1261194350386 716.8173145321279 491.8130597175193 C 717.8282700318036 471.69982255056823, 707.7547565501186 455.56826857227554, 691.0942885134921 450.62064125705956 C 685.4956299069619 448.9580183229774, 673.3929434269604 447.89787546262016, 668.5 448.6414795484579 M 878.9935258005574 448.91137303767925 C 873.9569471183617 450.48958257253196, 870.1208563366454 453.04087810837694, 866.6003687790453 457.1537760419854 L 863 461.3599972171169 863 455.67999860855844 L 863 450 851.5 450 L 840 450 840 492 L 840 534 852 534 L 864 534 864.023856634305 512.25 C 864.0369777831729 500.2875, 864.4571058973747 488.7348273191822, 864.9574746658647 486.57739404262713 C 866.9685619305246 477.9062161832904, 874.1179779759364 473, 884.7426686313972 473 L 891.0615577446118 473 890.780778872306 460.75 L 890.5 448.5 886 448.3129852696359 C 883.525 448.21012716793564, 880.3720866102509 448.47940166355517, 878.9935258005574 448.91137303767925 M 925 448.9558746253724 C 910.3437241540233 450.8966512292425, 898.2914082880084 461.83054295021265, 896.8429745425735 474.5 L 896.5 477.5 907.5660541143859 477.781030691079 L 918.6321082287719 478.06206138215805 919.5660541143859 474.3146640535077 C 921.3706839437407 467.07370383740255, 932.9696025002779 463.3473200620785, 940.914814966753 467.45594910730284 C 944.3770356842487 469.2463330222582, 947.2281600907587 474.96375126470105, 946.8111253782779 479.27994129543174 L 946.5 482.5 936.5 483.20170188302706 C 905.1102009796774 485.4043299910672, 892.9588257730279 493.2403083209632, 893.0219620004909 511.23910158442993 C 893.0778142073395 527.1613757647251, 903.2339687948546 535.4911220077913, 922.5 535.4160254549292 C 932.6751121996873 535.3763641545271, 937.9962800554954 533.5761980554126, 944.3008054177413 528.0407514718745 L 948 524.7928156106232 948 529.3964078053116 L 948 534 959.6051982474308 534 L 971.2103964948617 534 970.5365904581924 503.75 C 969.680848090653 465.3321093767124, 968.5789385621953 461.00354477327977, 957.8459165144959 453.8979925459245 C 951.2578020207296 449.53648174242363, 936.9138886009301 447.37824354768327, 925 448.9558746253724 M 451.4733181997405 451.75 C 451.85133089420054 452.7125, 455.89289035812203 463.4, 460.4545614528994 475.5 C 465.01623254767674 487.6, 472.00610679750366 505.9150464835559, 475.98761534140374 516.2001032967909 L 483.22672178485834 534.9002065935817 480.9705715050253 539.5607911585839 C 478.10555805520005 545.4791191982246, 474.21643407060503 547.2876855256536, 465.3422917997179 546.8284382026534 L 458.99580442446006 546.5 458.99790221223003 552.6682125317648 C 458.9990559955035 556.0607294242353, 458.72925504567996 559.5419751047806, 458.3983445459554 560.4043140440876 C 457.98080990852037 561.4923918677572, 458.66936319028076 562.3122616767714, 460.6483445459554 563.0834198143277 C 464.697208639653 564.6611580202798, 481.6623059662877 564.7177585164548, 486.84063539488506 563.1708049102965 C 492.8299219939995 561.3815891737215, 499.37121133765595 555.0328085885046, 502.83974786650936 547.6425429264334 C 505.04889887001974 542.9355973118315, 525.6511663381021 487.2478722788382, 537.5762949508572 453.75 L 538.9112821979751 450 526.2056410989876 450.0138351414778 L 513.5 450.02767028295557 508.3255977908998 466.7638351414778 C 505.4796765758947 475.968725813665, 501.4685932963446 488.9, 499.41207939189957 495.5 L 495.6729632019995 507.5 486.783441649403 480 C 481.89420479547493 464.875, 477.70691123337747 451.9375, 477.47834484474197 451.25 C 477.1739823615753 450.3345145324024, 473.5467880714718 450, 463.92439599215436 450 C 451.81649892190035 450, 450.8399287746543 450.1372570139046, 451.4733181997405 451.75 M 685.4131467564773 467.7761093533031 C 688.7245471255999 469.6744854394615, 693 476.9642428320609, 693 480.7118897590914 L 693 483 675.9205447341809 483 L 658.8410894683618 483 659.5409828213305 479.75 C 661.0506608143984 472.73971270886057, 665.0846792293164 467.66788481632625, 670.4687008838348 466.010968699052 C 674.5267371141936 464.76212052086504, 681.6164304742427 465.5995089448083, 685.4131467564773 467.7761093533031 M 591.895698534549 467.57494355024573 C 599.0474454202035 470.43650531125184, 602.9842208908269 478.85445332390077, 602.9944230655973 491.30717994682226 C 603.0023068149233 500.93004735793, 601.3841332847147 506.30991843656415, 596.9937931479069 511.25721295941855 L 593.228648754311 515.5 585.1698661608286 515.5 C 577.379571199339 515.5, 576.9956816696739 515.3881480767975, 573.6472413139361 512.1427119005043 C 569.3148701437951 507.94361243002686, 567.8193286221662 502.38750989696854, 567.8659962296497 490.66474556357116 C 567.9195500942387 477.2121739068142, 570.5219196286844 471.0305641025725, 577.4580886398871 467.8799059389605 C 582.4470035348803 465.6137608355051, 586.7662053732631 465.5225273058846, 591.895698534549 467.57494355024573 M 947 500.25660188679433 C 947 509.17951767687407, 942.5868770694691 515.1921046541248, 934.2611313597135 517.6124645938139 C 925.5834232932765 520.1351427663782, 918.5837238239529 517.628436750101, 917.4513990030539 511.5926265400352 C 915.7389869157162 502.4646853611197, 924.0962516145038 497.5879852303822, 942.25 497.12194204185744 C 946.9692459872749 497.0007895172857, 947 497.0210849633404, 947 500.25660188679433" stroke="none" fill-rule="evenodd" data-fill-layer-id="trace-color" style="fill:#000000" data-layer-color="#000000" fill="#000000" />
</svg>