<?xml version="1.0" encoding="UTF-8"?>
<svg version="1.1" xmlns="http://www.w3.org/2000/svg" width="1080" height="1080">
<path d="M0 0 C356.4 0 712.8 0 1080 0 C1080 356.4 1080 712.8 1080 1080 C723.6 1080 367.2 1080 0 1080 C0 723.6 0 367.2 0 0 Z " fill="#FEFEFE" transform="translate(0,0)"/>
<path d="M0 0 C2.73331174 -0.00219152 5.4662217 -0.02044319 8.19946289 -0.03930664 C23.37654251 -0.08942598 37.72939733 1.55046777 52.61547852 4.62280273 C54.15751953 4.92927734 54.15751953 4.92927734 55.73071289 5.24194336 C76.08008619 9.36837976 95.56800917 16.24383148 113.80297852 26.18530273 C114.41077148 26.50998535 115.01856445 26.83466797 115.64477539 27.16918945 C144.96821014 42.88711379 168.90113104 67.04837723 184.80297852 96.18530273 C185.1466748 96.81227051 185.49037109 97.43923828 185.84448242 98.08520508 C196.63322083 118.03753641 203.59848886 139.65974418 206.61547852 162.12280273 C206.73955078 163.04544922 206.86362305 163.9680957 206.99145508 164.91870117 C207.8262345 171.80624704 207.80297852 178.13585792 207.80297852 185.18530273 C171.83297852 185.18530273 135.86297852 185.18530273 98.80297852 185.18530273 C98.14297852 179.57530273 97.48297852 173.96530273 96.80297852 168.18530273 C91.73178688 146.14512372 80.47936591 127.06898329 61.36547852 114.43530273 C56.04593296 111.18488735 50.52874674 108.62757354 44.80297852 106.18530273 C43.16329102 105.38092773 43.16329102 105.38092773 41.49047852 104.56030273 C28.80279951 99.82930378 15.5792381 98.99846064 2.18676758 99 C0.07165124 98.99782196 -2.04293505 98.97963901 -4.15795898 98.96069336 C-30.42633803 98.85067437 -54.49193713 107.31103313 -73.82202148 125.31030273 C-90.3937086 142.53535386 -97.35584706 165.55606058 -97.33746338 189.01159668 C-97.3404345 190.19939146 -97.34340562 191.38718623 -97.34646678 192.61097479 C-97.35362326 195.8954681 -97.35632424 199.17992947 -97.35706425 202.46442938 C-97.35892143 206.01200789 -97.36647217 209.55957522 -97.37319946 213.10714722 C-97.38675734 220.85955718 -97.39280376 228.61196195 -97.39721012 236.36438179 C-97.39997731 241.21042617 -97.40421557 246.05646856 -97.40871429 250.9025116 C-97.42090451 264.33475875 -97.43120374 277.76700433 -97.43458939 291.1992569 C-97.43480895 292.0582801 -97.43502852 292.91730331 -97.43525474 293.80235752 C-97.43547302 294.66337375 -97.43569129 295.52438997 -97.43591619 296.41149759 C-97.43635964 298.15608629 -97.43680621 299.90067498 -97.43725586 301.64526367 C-97.43747729 302.51063002 -97.43769872 303.37599636 -97.43792686 304.26758593 C-97.44187135 318.27646087 -97.45931581 332.28528367 -97.48261538 346.29413849 C-97.5063748 360.69644264 -97.51879335 375.09872069 -97.5199573 389.50104475 C-97.52087158 397.57942515 -97.52656113 405.65773764 -97.54477692 413.73609924 C-97.56024011 420.61774226 -97.56526198 427.49929639 -97.55703881 434.38095349 C-97.55315395 437.88663871 -97.5539547 441.39214528 -97.56809616 444.89780807 C-97.69215851 464.74390074 -97.69215851 464.74390074 -94.19702148 484.18530273 C-93.98454395 485.07617836 -93.77206642 485.96705399 -93.55315018 486.88492584 C-90.57152482 499.15894777 -83.63284854 510.93867021 -75.19702148 520.18530273 C-74.68010742 520.79374023 -74.16319336 521.40217773 -73.63061523 522.02905273 C-59.35644342 537.76999408 -35.88536508 546.02938676 -15.17706299 547.3102417 C-10.79550222 547.48566815 -6.41637554 547.51373771 -2.03173828 547.50097656 C0.23461867 547.49781092 2.49967162 547.52139917 4.76586914 547.54663086 C14.19296372 547.58769929 22.65070349 546.62847244 31.80297852 544.18530273 C32.91733276 543.89514282 32.91733276 543.89514282 34.05419922 543.59912109 C56.72286783 537.30374857 74.95139801 523.88975768 86.98657227 503.56420898 C94.27680717 490.00280426 97.41959544 475.40251662 98.80297852 460.18530273 C134.77297852 460.18530273 170.74297852 460.18530273 207.80297852 460.18530273 C207.80297852 469.21476169 207.49133756 477.27172435 206.05297852 486.06030273 C205.87033447 487.19870605 205.68769043 488.33710937 205.49951172 489.51000977 C204.10465698 497.92713321 202.4141208 506.05025877 199.80297852 514.18530273 C199.56208496 514.9394043 199.32119141 515.69350586 199.07299805 516.47045898 C183.71827605 563.93563757 152.65923822 600.74764639 108.3840332 623.94677734 C87.34307418 634.64314539 64.13921573 641.05679673 40.80297852 644.18530273 C40.12039474 644.27718369 39.43781097 644.36906464 38.73454285 644.46372986 C27.0185506 645.99819621 15.48681524 646.51290224 3.67797852 646.43530273 C2.40787933 646.43065002 2.40787933 646.43065002 1.11212158 646.42590332 C-20.03887463 646.33545711 -40.52664296 644.86592553 -61.19702148 640.18530273 C-61.99414551 640.00628418 -62.79126953 639.82726562 -63.61254883 639.64282227 C-112.19372999 628.45787585 -153.74827613 600.4143267 -180.43237305 558.15673828 C-199.89456653 526.62448264 -208.35061936 490.07120809 -208.3441925 453.24467468 C-208.34970754 451.5166085 -208.34970754 451.5166085 -208.35533398 449.75363189 C-208.36628721 445.91924604 -208.37020046 442.08488737 -208.37402344 438.25048828 C-208.37977031 435.48969293 -208.38693048 432.72890153 -208.39393616 429.96810913 C-208.41361066 421.70106473 -208.42375742 413.43401928 -208.43266395 405.16695735 C-208.43617993 402.04250945 -208.44032584 398.91806253 -208.44450361 395.79361546 C-208.46296809 381.98176904 -208.47870981 368.16992257 -208.48640156 354.35806561 C-208.48831093 350.98480414 -208.49023133 347.61154269 -208.4921875 344.23828125 C-208.49291311 342.98092818 -208.49291311 342.98092818 -208.49365338 341.69817404 C-208.50192873 328.16202499 -208.52722568 314.62596502 -208.55976818 301.08985474 C-208.59303121 287.13822681 -208.61086773 273.18664384 -208.6140458 259.23497611 C-208.61619373 251.42386933 -208.62468596 243.61289225 -208.65050697 235.80182457 C-208.67247925 229.14027616 -208.68013716 222.47888893 -208.67054019 215.81730839 C-208.66606986 212.43314543 -208.66973788 209.04957633 -208.68730164 205.66541862 C-208.84060002 174.33114274 -205.71044047 142.23160256 -193.19702148 113.18530273 C-192.71773193 112.06841064 -192.71773193 112.06841064 -192.22875977 110.92895508 C-172.27387782 65.17018304 -135.957842 32.71189233 -89.88452148 14.43139648 C-60.80229659 3.44647769 -30.88540023 -0.00276182 0 0 Z " fill="#000000" transform="translate(806.197021484375,224.814697265625)"/>
<path d="M0 0 C150.48 0 300.96 0 456 0 C456 33 456 66 456 100 C398.91 100 341.82 100 283 100 C283 274.57 283 449.14 283 629 C246.7 629 210.4 629 173 629 C173 454.43 173 279.86 173 100 C115.91 100 58.82 100 0 100 C0 67 0 34 0 0 Z " fill="#000000" transform="translate(50,234)"/>
</svg>
